<svg width="40" height="40" fill="none" xmlns="http://www.w3.org/2000/svg"><g clip-path="url(#clip0_0_226)"><path d="M37.888 9.598l-2.553 25.641H4.665L2.607 10.094 20 19.832 37.888 9.598z" fill="#F2F2F2"/><path d="M37.022 4.766L20 20.756 2.977 4.766h34.045z" fill="#F2F2F2"/><path d="M4.665 12.147v23.087h-2.78A1.886 1.886 0 010 33.348V8.747l3.047.083 1.618 3.318z" fill="#F14336"/><path d="M40 8.746v24.602a1.886 1.886 0 01-1.886 1.886h-2.778V12.146l1.538-3.634 3.127.234z" fill="#D32E2A"/><path d="M40 6.651V8.75l-4.665 3.4L20 23.326 4.665 12.15 0 8.75v-2.1c0-1.04.845-1.885 1.886-1.885h1.092L20 17.173 37.022 4.766h1.091C39.155 4.766 40 5.61 40 6.65z" fill="#F14336"/><path d="M4.665 12.147L0 11.423V8.746l4.665 3.4z" fill="#D32E2A"/></g><defs><clipPath id="clip0_0_226"><path fill="#fff" d="M0 0h40v40H0z"/></clipPath></defs></svg>