<svg width="40" height="40" fill="none" xmlns="http://www.w3.org/2000/svg"><g clip-path="url(#clip0_0_222)"><path d="M35 0H5a5 5 0 00-5 5v30a5 5 0 005 5h30a5 5 0 005-5V5a5 5 0 00-5-5z" fill="#61A8DE"/><path d="M31.496 8.83L4.748 19.253c-.867.338-.814 1.581.078 1.845l6.797 2.007 2.536 8.049a1.167 1.167 0 001.948.466l3.514-3.588 6.895 5.06c.844.62 2.046.16 2.26-.864l4.567-21.835a1.376 1.376 0 00-1.847-1.563zm-3.353 4.845L15.718 24.662a.667.667 0 00-.221.426l-.478 4.252c-.016.139-.21.157-.252.024L12.8 23.022a.667.667 0 01.285-.765l14.672-9.1c.338-.21.683.255.386.518z" fill="#fff"/></g><defs><clipPath id="clip0_0_222"><path fill="#fff" d="M0 0h40v40H0z"/></clipPath></defs></svg>